<svg width="24" height="24" viewBox="0 0 24 24" fill="none" xmlns="http://www.w3.org/2000/svg">
<path d="M12 4C7.121 4 3 8.121 3 13C3 17.879 7.121 22 12 22C16.879 22 21 17.879 21 13C21 8.121 16.879 4 12 4ZM12 20C8.206 20 5 16.794 5 13C5 9.206 8.206 6 12 6C15.794 6 19 9.206 19 13C19 16.794 15.794 20 12 20Z" fill="#888888"/>
<path d="M13 12V8H11V12V14H13H17V12H13Z" fill="#888888"/>
<path d="M17.2832 3.70703L18.6954 2.2908L21.7049 5.2917L20.2927 6.70793L17.2832 3.70703Z" fill="#888888"/>
<path d="M6.69922 3.70703L3.70891 6.70591L2.29267 5.29372L5.28298 2.29484L6.69922 3.70703Z" fill="#888888"/>
</svg>
