<svg width="16" height="16" viewBox="0 0 16 16" fill="none" xmlns="http://www.w3.org/2000/svg">
<path d="M8 14.6666C11.2527 14.6666 14 11.9193 14 8.66663C14 5.41396 11.2527 2.66663 8 2.66663C4.74733 2.66663 2 5.41396 2 8.66663C2 11.9193 4.74733 14.6666 8 14.6666ZM8 3.99996C10.5293 3.99996 12.6667 6.13729 12.6667 8.66663C12.6667 11.196 10.5293 13.3333 8 13.3333C5.47067 13.3333 3.33333 11.196 3.33333 8.66663C3.33333 6.13729 5.47067 3.99996 8 3.99996Z" fill="#FF3B30"/>
<path d="M11.5225 2.47131L12.4639 1.52716L14.4703 3.52776L13.5288 4.47191L11.5225 2.47131Z" fill="#FF3B30"/>
<path d="M3.52246 1.52942L4.4666 2.47089L2.47303 4.47011L1.52889 3.52864L3.52246 1.52942Z" fill="#FF3B30"/>
<path d="M7.33301 6H8.66634V9.33333H7.33301V6ZM7.33301 10H8.66634V11.3333H7.33301V10Z" fill="#FF3B30"/>
</svg>
